<?xml version="1.0" encoding="UTF-8"?>
<svg width="16px" height="16px" viewBox="0 0 16 16" version="1.1" xmlns="http://www.w3.org/2000/svg">
  <g stroke="none" stroke-width="1" fill="#666666" fill-rule="evenodd">
    <path d="M8,11.5 C6.07,11.5 4.5,9.93 4.5,8 C4.5,6.07 6.07,4.5 8,4.5 C9.93,4.5 11.5,6.07 11.5,8 C11.5,9.93 9.93,11.5 8,11.5 Z M8,5.5 C6.62,5.5 5.5,6.62 5.5,8 C5.5,9.38 6.62,10.5 8,10.5 C9.38,10.5 10.5,9.38 10.5,8 C10.5,6.62 9.38,5.5 8,5.5 Z" fill-rule="nonzero"></path>
    <path d="M8,13.5 C7.83,13.5 7.67,13.48 7.5,13.46 L7.05,14.83 C6.59,14.94 6.12,15 5.64,15 L5.38,13.5 C5.05,13.5 4.73,13.46 4.42,13.38 L3.75,14.65 C3.3,14.47 2.88,14.23 2.49,13.95 L3.16,12.69 C2.9,12.47 2.67,12.22 2.47,11.94 L1.11,12.52 C0.8,12.1 0.54,11.63 0.36,11.13 L1.72,10.55 C1.63,10.22 1.57,9.88 1.56,9.53 L0.06,9.53 C0.02,9.03 0.06,8.52 0.16,8.03 L1.66,8.03 C1.72,7.68 1.82,7.35 1.94,7.03 L0.68,6.25 C0.9,5.77 1.19,5.33 1.54,4.94 L2.8,5.72 C3,5.45 3.23,5.22 3.49,5 L2.66,3.8 C3.05,3.41 3.49,3.08 3.98,2.81 L4.81,4.01 C5.12,3.86 5.44,3.75 5.78,3.68 L5.78,2.19 C6.27,2.07 6.78,2.01 7.28,2.03 L7.28,3.52 C7.63,3.54 7.97,3.6 8.3,3.71 L8.95,2.4 C9.45,2.59 9.92,2.86 10.34,3.18 L9.7,4.49 C9.99,4.7 10.24,4.95 10.47,5.24 L11.83,4.65 C12.16,5.06 12.42,5.53 12.61,6.04 L11.25,6.63 C11.35,6.96 11.42,7.32 11.44,7.68 L12.94,7.68 C12.98,8.18 12.94,8.69 12.84,9.18 L11.34,9.18 C11.28,9.53 11.18,9.86 11.06,10.18 L12.32,10.96 C12.1,11.44 11.81,11.88 11.46,12.27 L10.19,11.49 C9.99,11.76 9.77,11.99 9.51,12.21 L10.34,13.41 C9.95,13.8 9.51,14.13 9.02,14.4 L8.19,13.2 C7.88,13.35 7.56,13.46 7.22,13.53 L7.22,14.98 C6.72,15.1 6.21,15.16 5.71,15.14 L5.71,13.65 C5.37,13.63 5.03,13.57 4.7,13.46 L4.05,14.77 C3.55,14.58 3.08,14.31 2.66,13.99 L3.3,12.68 C3.01,12.47 2.76,12.22 2.53,11.93 L1.17,12.52 C0.84,12.11 0.58,11.64 0.39,11.13 L1.75,10.54 C1.65,10.21 1.58,9.85 1.56,9.49 L0.06,9.49 C0.02,8.99 0.06,8.48 0.16,7.99 L1.66,7.99 C1.72,7.64 1.82,7.31 1.94,6.99 L0.68,6.21 C0.9,5.73 1.19,5.29 1.54,4.9 L2.8,5.68 C3,5.41 3.23,5.18 3.49,4.96 L2.66,3.76 C3.05,3.37 3.49,3.04 3.98,2.77 L4.81,3.97 C5.12,3.82 5.44,3.71 5.78,3.64 L5.78,2.15 C6.27,2.03 6.78,1.97 7.28,1.99 L7.28,3.48 C7.63,3.5 7.97,3.56 8.3,3.67 L8.95,2.36 C9.45,2.55 9.92,2.82 10.34,3.14 L9.7,4.45 C9.99,4.66 10.24,4.91 10.47,5.2 L11.83,4.61 C12.16,5.02 12.42,5.49 12.61,6 L11.25,6.59 C11.35,6.92 11.42,7.28 11.44,7.64 L12.94,7.64 C12.98,8.14 12.94,8.65 12.84,9.14 L11.34,9.14 C11.28,9.49 11.18,9.82 11.06,10.14 L12.32,10.92 C12.1,11.4 11.81,11.84 11.46,12.23 L10.19,11.45 C9.99,11.72 9.77,11.95 9.51,12.17 L10.34,13.37 C9.94,13.77 9.48,14.1 8.98,14.36 L8.15,13.16 C7.89,13.3 7.61,13.4 7.31,13.47 C7.54,13.49 7.77,13.5 8,13.5 Z" fill-rule="nonzero"></path>
  </g>
</svg>